<svg xmlns="http://www.w3.org/2000/svg" xmlns:xlink="http://www.w3.org/1999/xlink" width="200" zoomAndPan="magnify" viewBox="0 0 150 44.999999" height="60" preserveAspectRatio="xMidYMid meet" version="1.0"><defs><g/></defs><g fill="#000000" fill-opacity="1"><g transform="translate(18.654339, 20.844527)"><g><path d="M 8.5625 -13 L 8.5625 -9.359375 L 6 -9.359375 C 5.59375 -9.359375 5.3125 -9.320312 5.15625 -9.25 C 5 -9.1875 4.921875 -9.066406 4.921875 -8.890625 C 4.921875 -8.753906 5.023438 -8.585938 5.234375 -8.390625 C 5.453125 -8.203125 5.773438 -7.96875 6.203125 -7.6875 C 6.617188 -7.382812 7.003906 -7.082031 7.359375 -6.78125 C 7.710938 -6.476562 8.015625 -6.160156 8.265625 -5.828125 C 8.523438 -5.492188 8.722656 -5.140625 8.859375 -4.765625 C 9.003906 -4.398438 9.078125 -4.007812 9.078125 -3.59375 C 9.078125 -2.976562 8.945312 -2.441406 8.6875 -1.984375 C 8.425781 -1.535156 8.082031 -1.160156 7.65625 -0.859375 C 7.226562 -0.566406 6.734375 -0.347656 6.171875 -0.203125 C 5.609375 -0.0664062 5.03125 0 4.4375 0 L 0.421875 0 L 0.421875 -3.71875 L 3 -3.71875 C 3.519531 -3.71875 3.882812 -3.753906 4.09375 -3.828125 C 4.300781 -3.910156 4.40625 -4.078125 4.40625 -4.328125 C 4.40625 -4.554688 4.007812 -4.960938 3.21875 -5.546875 C 2.832031 -5.835938 2.472656 -6.125 2.140625 -6.40625 C 1.804688 -6.695312 1.515625 -7.003906 1.265625 -7.328125 C 1.015625 -7.648438 0.816406 -7.984375 0.671875 -8.328125 C 0.535156 -8.679688 0.46875 -9.054688 0.46875 -9.453125 C 0.46875 -10.648438 0.851562 -11.539062 1.625 -12.125 C 2.394531 -12.707031 3.457031 -13 4.8125 -13 Z M 8.5625 -13 "/></g></g></g><g fill="#000000" fill-opacity="1"><g transform="translate(27.929683, 20.844527)"><g><path d="M 9.28125 -13 L 9.28125 -9.546875 L 7.671875 -9.546875 C 7.078125 -9.546875 6.550781 -9.421875 6.09375 -9.171875 C 5.644531 -8.921875 5.320312 -8.550781 5.125 -8.0625 L 9.28125 -8.0625 L 9.28125 -4.9375 L 5.125 -4.9375 C 5.332031 -4.4375 5.65625 -4.0625 6.09375 -3.8125 C 6.53125 -3.570312 7.0625 -3.453125 7.6875 -3.453125 L 9.28125 -3.453125 L 9.28125 0 L 7.296875 0 C 6.398438 0 5.550781 -0.144531 4.75 -0.4375 C 3.957031 -0.726562 3.257812 -1.148438 2.65625 -1.703125 C 2.050781 -2.265625 1.566406 -2.945312 1.203125 -3.75 C 0.847656 -4.550781 0.671875 -5.46875 0.671875 -6.5 C 0.671875 -7.519531 0.847656 -8.429688 1.203125 -9.234375 C 1.566406 -10.046875 2.050781 -10.726562 2.65625 -11.28125 C 3.269531 -11.84375 3.976562 -12.269531 4.78125 -12.5625 C 5.59375 -12.851562 6.441406 -13 7.328125 -13 Z M 9.28125 -13 "/></g></g></g><g fill="#000000" fill-opacity="1"><g transform="translate(37.89141, 20.844527)"><g><path d="M 10.484375 -9.25 C 10.484375 -8.75 10.375 -8.253906 10.15625 -7.765625 C 9.945312 -7.273438 9.644531 -6.867188 9.25 -6.546875 C 9.800781 -6.335938 10.175781 -6.003906 10.375 -5.546875 C 10.570312 -5.085938 10.671875 -4.5625 10.671875 -3.96875 L 10.671875 0 L 6.625 0 L 6.625 -3.328125 C 6.625 -3.742188 6.550781 -4.046875 6.40625 -4.234375 C 6.269531 -4.429688 5.957031 -4.53125 5.46875 -4.53125 L 5.46875 -7.640625 C 5.789062 -7.640625 6.085938 -7.703125 6.359375 -7.828125 C 6.640625 -7.960938 6.78125 -8.210938 6.78125 -8.578125 C 6.78125 -8.867188 6.703125 -9.101562 6.546875 -9.28125 C 6.398438 -9.457031 6.164062 -9.546875 5.84375 -9.546875 C 5.488281 -9.546875 5.242188 -9.457031 5.109375 -9.28125 C 4.984375 -9.101562 4.921875 -8.804688 4.921875 -8.390625 L 4.921875 0 L 0.875 0 L 0.875 -8.296875 C 0.875 -9.867188 1.296875 -11.082031 2.140625 -11.9375 C 2.992188 -12.789062 4.21875 -13.21875 5.8125 -13.21875 C 6.457031 -13.21875 7.0625 -13.109375 7.625 -12.890625 C 8.1875 -12.679688 8.679688 -12.398438 9.109375 -12.046875 C 9.535156 -11.691406 9.867188 -11.269531 10.109375 -10.78125 C 10.359375 -10.300781 10.484375 -9.789062 10.484375 -9.25 Z M 10.484375 -9.25 "/></g></g></g><g fill="#000000" fill-opacity="1"><g transform="translate(49.225878, 20.844527)"><g><path d="M 10.484375 -9.25 C 10.484375 -8.75 10.375 -8.253906 10.15625 -7.765625 C 9.945312 -7.273438 9.644531 -6.867188 9.25 -6.546875 C 9.800781 -6.335938 10.175781 -6.003906 10.375 -5.546875 C 10.570312 -5.085938 10.671875 -4.5625 10.671875 -3.96875 L 10.671875 0 L 6.625 0 L 6.625 -3.328125 C 6.625 -3.742188 6.550781 -4.046875 6.40625 -4.234375 C 6.269531 -4.429688 5.957031 -4.53125 5.46875 -4.53125 L 5.46875 -7.640625 C 5.789062 -7.640625 6.085938 -7.703125 6.359375 -7.828125 C 6.640625 -7.960938 6.78125 -8.210938 6.78125 -8.578125 C 6.78125 -8.867188 6.703125 -9.101562 6.546875 -9.28125 C 6.398438 -9.457031 6.164062 -9.546875 5.84375 -9.546875 C 5.488281 -9.546875 5.242188 -9.457031 5.109375 -9.28125 C 4.984375 -9.101562 4.921875 -8.804688 4.921875 -8.390625 L 4.921875 0 L 0.875 0 L 0.875 -8.296875 C 0.875 -9.867188 1.296875 -11.082031 2.140625 -11.9375 C 2.992188 -12.789062 4.21875 -13.21875 5.8125 -13.21875 C 6.457031 -13.21875 7.0625 -13.109375 7.625 -12.890625 C 8.1875 -12.679688 8.679688 -12.398438 9.109375 -12.046875 C 9.535156 -11.691406 9.867188 -11.269531 10.109375 -10.78125 C 10.359375 -10.300781 10.484375 -9.789062 10.484375 -9.25 Z M 10.484375 -9.25 "/></g></g></g><g fill="#000000" fill-opacity="1"><g transform="translate(60.560346, 20.844527)"><g><path d="M 10.796875 0 L 6.75 0 L 6.75 -3.953125 L 5.515625 -3.953125 L 5.515625 -7.265625 L 6.75 -7.265625 L 6.75 -8.421875 C 6.75 -8.722656 6.664062 -8.972656 6.5 -9.171875 C 6.332031 -9.367188 6.109375 -9.46875 5.828125 -9.46875 C 5.546875 -9.46875 5.320312 -9.367188 5.15625 -9.171875 C 5 -8.972656 4.921875 -8.722656 4.921875 -8.421875 L 4.921875 0 L 0.875 0 L 0.875 -8.21875 C 0.875 -8.800781 0.972656 -9.390625 1.171875 -9.984375 C 1.378906 -10.578125 1.691406 -11.113281 2.109375 -11.59375 C 2.523438 -12.070312 3.039062 -12.460938 3.65625 -12.765625 C 4.269531 -13.066406 5 -13.21875 5.84375 -13.21875 C 6.6875 -13.21875 7.414062 -13.066406 8.03125 -12.765625 C 8.65625 -12.460938 9.171875 -12.070312 9.578125 -11.59375 C 9.984375 -11.113281 10.285156 -10.578125 10.484375 -9.984375 C 10.691406 -9.390625 10.796875 -8.800781 10.796875 -8.21875 Z M 10.796875 0 "/></g></g></g><g fill="#000000" fill-opacity="1"><g transform="translate(72.247281, 20.844527)"><g><path d="M 4.953125 -13 L 4.953125 -4.796875 C 4.953125 -4.515625 5.007812 -4.296875 5.125 -4.140625 C 5.238281 -3.992188 5.4375 -3.890625 5.71875 -3.828125 C 5.832031 -3.796875 5.929688 -3.773438 6.015625 -3.765625 C 6.097656 -3.753906 6.195312 -3.742188 6.3125 -3.734375 C 6.4375 -3.734375 6.582031 -3.726562 6.75 -3.71875 C 6.925781 -3.71875 7.15625 -3.71875 7.4375 -3.71875 L 8.328125 -3.71875 L 8.328125 0 L 4.703125 0 C 4.148438 0 3.640625 -0.09375 3.171875 -0.28125 C 2.710938 -0.46875 2.316406 -0.726562 1.984375 -1.0625 C 1.648438 -1.394531 1.382812 -1.789062 1.1875 -2.25 C 1 -2.707031 0.90625 -3.207031 0.90625 -3.75 L 0.90625 -13 Z M 4.953125 -13 "/></g></g></g><g fill="#000000" fill-opacity="1"><g transform="translate(80.483788, 20.844527)"><g><path d="M 5 -13 L 5 -8.5 L 7.015625 -8.5 L 7.015625 -13 L 11.0625 -13 L 11.0625 0 L 7.015625 0 L 7.015625 -5.046875 L 5 -5.046875 L 5 0 L 0.953125 0 L 0.953125 -13 Z M 5 -13 "/></g></g></g><g fill="#000000" fill-opacity="1"><g transform="translate(92.504638, 20.844527)"><g><path d="M 9.28125 -13 L 9.28125 -9.546875 L 7.671875 -9.546875 C 7.078125 -9.546875 6.550781 -9.421875 6.09375 -9.171875 C 5.644531 -8.921875 5.320312 -8.550781 5.125 -8.0625 L 9.28125 -8.0625 L 9.28125 -4.9375 L 5.125 -4.9375 C 5.332031 -4.4375 5.65625 -4.0625 6.09375 -3.8125 C 6.53125 -3.570312 7.0625 -3.453125 7.6875 -3.453125 L 9.28125 -3.453125 L 9.28125 0 L 7.296875 0 C 6.398438 0 5.550781 -0.144531 4.75 -0.4375 C 3.957031 -0.726562 3.257812 -1.148438 2.65625 -1.703125 C 2.050781 -2.265625 1.566406 -2.945312 1.203125 -3.75 C 0.847656 -4.550781 0.671875 -5.46875 0.671875 -6.5 C 0.671875 -7.519531 0.847656 -8.429688 1.203125 -9.234375 C 1.566406 -10.046875 2.050781 -10.726562 2.65625 -11.28125 C 3.269531 -11.84375 3.976562 -12.269531 4.78125 -12.5625 C 5.59375 -12.851562 6.441406 -13 7.328125 -13 Z M 9.28125 -13 "/></g></g></g><g fill="#000000" fill-opacity="1"><g transform="translate(102.466364, 20.844527)"><g><path d="M 10.484375 -9.25 C 10.484375 -8.75 10.375 -8.253906 10.15625 -7.765625 C 9.945312 -7.273438 9.644531 -6.867188 9.25 -6.546875 C 9.800781 -6.335938 10.175781 -6.003906 10.375 -5.546875 C 10.570312 -5.085938 10.671875 -4.5625 10.671875 -3.96875 L 10.671875 0 L 6.625 0 L 6.625 -3.328125 C 6.625 -3.742188 6.550781 -4.046875 6.40625 -4.234375 C 6.269531 -4.429688 5.957031 -4.53125 5.46875 -4.53125 L 5.46875 -7.640625 C 5.789062 -7.640625 6.085938 -7.703125 6.359375 -7.828125 C 6.640625 -7.960938 6.78125 -8.210938 6.78125 -8.578125 C 6.78125 -8.867188 6.703125 -9.101562 6.546875 -9.28125 C 6.398438 -9.457031 6.164062 -9.546875 5.84375 -9.546875 C 5.488281 -9.546875 5.242188 -9.457031 5.109375 -9.28125 C 4.984375 -9.101562 4.921875 -8.804688 4.921875 -8.390625 L 4.921875 0 L 0.875 0 L 0.875 -8.296875 C 0.875 -9.867188 1.296875 -11.082031 2.140625 -11.9375 C 2.992188 -12.789062 4.21875 -13.21875 5.8125 -13.21875 C 6.457031 -13.21875 7.0625 -13.109375 7.625 -12.890625 C 8.1875 -12.679688 8.679688 -12.398438 9.109375 -12.046875 C 9.535156 -11.691406 9.867188 -11.269531 10.109375 -10.78125 C 10.359375 -10.300781 10.484375 -9.789062 10.484375 -9.25 Z M 10.484375 -9.25 "/></g></g></g><g fill="#000000" fill-opacity="1"><g transform="translate(113.800833, 20.844527)"><g><path d="M 4.9375 -13 L 4.9375 0 L 0.890625 0 L 0.890625 -13 Z M 4.9375 -13 "/></g></g></g><g fill="#000000" fill-opacity="1"><g transform="translate(119.6443, 20.844527)"><g><path d="M 10.796875 0 L 6.75 0 L 6.75 -3.953125 L 5.515625 -3.953125 L 5.515625 -7.265625 L 6.75 -7.265625 L 6.75 -8.421875 C 6.75 -8.722656 6.664062 -8.972656 6.5 -9.171875 C 6.332031 -9.367188 6.109375 -9.46875 5.828125 -9.46875 C 5.546875 -9.46875 5.320312 -9.367188 5.15625 -9.171875 C 5 -8.972656 4.921875 -8.722656 4.921875 -8.421875 L 4.921875 0 L 0.875 0 L 0.875 -8.21875 C 0.875 -8.800781 0.972656 -9.390625 1.171875 -9.984375 C 1.378906 -10.578125 1.691406 -11.113281 2.109375 -11.59375 C 2.523438 -12.070312 3.039062 -12.460938 3.65625 -12.765625 C 4.269531 -13.066406 5 -13.21875 5.84375 -13.21875 C 6.6875 -13.21875 7.414062 -13.066406 8.03125 -12.765625 C 8.65625 -12.460938 9.171875 -12.070312 9.578125 -11.59375 C 9.984375 -11.113281 10.285156 -10.578125 10.484375 -9.984375 C 10.691406 -9.390625 10.796875 -8.800781 10.796875 -8.21875 Z M 10.796875 0 "/></g></g></g><g fill="#000000" fill-opacity="1"><g transform="translate(26.552776, 36.594526)"><g><path d="M 9.015625 -13 L 9.015625 -9.28125 L 7.78125 -9.28125 C 7.375 -9.28125 6.988281 -9.210938 6.625 -9.078125 C 6.269531 -8.953125 5.957031 -8.769531 5.6875 -8.53125 C 5.425781 -8.289062 5.210938 -7.992188 5.046875 -7.640625 C 4.890625 -7.296875 4.8125 -6.910156 4.8125 -6.484375 C 4.8125 -6.054688 4.882812 -5.671875 5.03125 -5.328125 C 5.1875 -4.992188 5.394531 -4.707031 5.65625 -4.46875 C 5.925781 -4.226562 6.238281 -4.039062 6.59375 -3.90625 C 6.957031 -3.78125 7.347656 -3.71875 7.765625 -3.71875 L 9.015625 -3.71875 L 9.015625 0 L 6.828125 0 C 6.023438 0 5.25 -0.160156 4.5 -0.484375 C 3.75 -0.804688 3.085938 -1.25 2.515625 -1.8125 C 1.941406 -2.382812 1.476562 -3.066406 1.125 -3.859375 C 0.78125 -4.648438 0.609375 -5.523438 0.609375 -6.484375 C 0.609375 -7.429688 0.78125 -8.300781 1.125 -9.09375 C 1.476562 -9.894531 1.941406 -10.582031 2.515625 -11.15625 C 3.085938 -11.738281 3.742188 -12.191406 4.484375 -12.515625 C 5.234375 -12.835938 6.007812 -13 6.8125 -13 Z M 9.015625 -13 "/></g></g></g><g fill="#000000" fill-opacity="1"><g transform="translate(36.180587, 36.594526)"><g><path d="M 14.109375 -6.5 C 14.109375 -5.570312 13.929688 -4.695312 13.578125 -3.875 C 13.222656 -3.0625 12.738281 -2.347656 12.125 -1.734375 C 11.519531 -1.128906 10.804688 -0.648438 9.984375 -0.296875 C 9.171875 0.046875 8.304688 0.21875 7.390625 0.21875 C 6.472656 0.21875 5.601562 0.046875 4.78125 -0.296875 C 3.96875 -0.648438 3.253906 -1.128906 2.640625 -1.734375 C 2.023438 -2.347656 1.539062 -3.0625 1.1875 -3.875 C 0.84375 -4.695312 0.671875 -5.570312 0.671875 -6.5 C 0.671875 -7.425781 0.84375 -8.296875 1.1875 -9.109375 C 1.539062 -9.921875 2.023438 -10.628906 2.640625 -11.234375 C 3.253906 -11.847656 3.96875 -12.332031 4.78125 -12.6875 C 5.59375 -13.039062 6.460938 -13.21875 7.390625 -13.21875 C 8.316406 -13.21875 9.1875 -13.039062 10 -12.6875 C 10.8125 -12.332031 11.519531 -11.847656 12.125 -11.234375 C 12.738281 -10.628906 13.222656 -9.921875 13.578125 -9.109375 C 13.929688 -8.296875 14.109375 -7.425781 14.109375 -6.5 Z M 7.390625 -3.890625 C 7.742188 -3.890625 8.078125 -3.957031 8.390625 -4.09375 C 8.710938 -4.238281 8.988281 -4.425781 9.21875 -4.65625 C 9.457031 -4.894531 9.644531 -5.171875 9.78125 -5.484375 C 9.914062 -5.796875 9.984375 -6.132812 9.984375 -6.5 C 9.984375 -6.84375 9.914062 -7.171875 9.78125 -7.484375 C 9.644531 -7.804688 9.457031 -8.085938 9.21875 -8.328125 C 8.988281 -8.566406 8.710938 -8.753906 8.390625 -8.890625 C 8.078125 -9.023438 7.738281 -9.09375 7.375 -9.09375 C 7.019531 -9.09375 6.6875 -9.023438 6.375 -8.890625 C 6.0625 -8.753906 5.785156 -8.566406 5.546875 -8.328125 C 5.316406 -8.097656 5.132812 -7.820312 5 -7.5 C 4.863281 -7.1875 4.796875 -6.851562 4.796875 -6.5 C 4.796875 -6.132812 4.863281 -5.796875 5 -5.484375 C 5.132812 -5.171875 5.316406 -4.894531 5.546875 -4.65625 C 5.785156 -4.425781 6.0625 -4.238281 6.375 -4.09375 C 6.6875 -3.957031 7.023438 -3.890625 7.390625 -3.890625 Z M 7.390625 -3.890625 "/></g></g></g><g fill="#000000" fill-opacity="1"><g transform="translate(50.946944, 36.594526)"><g><path d="M 7.625 -7.609375 L 7.671875 -7.609375 L 7.671875 -13 L 11.71875 -13 L 11.71875 -2.015625 C 11.71875 -1.660156 11.660156 -1.34375 11.546875 -1.0625 C 11.429688 -0.789062 11.273438 -0.554688 11.078125 -0.359375 C 10.878906 -0.160156 10.644531 -0.0078125 10.375 0.09375 C 10.101562 0.207031 9.8125 0.265625 9.5 0.265625 C 9.363281 0.265625 9.191406 0.238281 8.984375 0.1875 C 8.785156 0.144531 8.570312 0.0664062 8.34375 -0.046875 C 8.125 -0.160156 7.90625 -0.320312 7.6875 -0.53125 C 7.476562 -0.75 7.285156 -1.023438 7.109375 -1.359375 L 5.09375 -5.34375 L 5.046875 -5.34375 L 5.046875 0 L 1 0 L 1 -10.9375 C 1 -11.625 1.203125 -12.175781 1.609375 -12.59375 C 2.023438 -13.007812 2.550781 -13.21875 3.1875 -13.21875 C 3.675781 -13.21875 4.132812 -13.070312 4.5625 -12.78125 C 5 -12.5 5.320312 -12.15625 5.53125 -11.75 Z M 7.625 -7.609375 "/></g></g></g><g fill="#000000" fill-opacity="1"><g transform="translate(63.654165, 36.594526)"><g><path d="M 8.296875 -13 L 8.296875 -9.28125 L 6.140625 -9.28125 L 6.140625 0 L 2.09375 0 L 2.09375 -9.28125 L -0.03125 -9.28125 L -0.03125 -13 Z M 8.296875 -13 "/></g></g></g><g fill="#000000" fill-opacity="1"><g transform="translate(71.890672, 36.594526)"><g><path d="M 10.796875 0 L 6.75 0 L 6.75 -3.953125 L 5.515625 -3.953125 L 5.515625 -7.265625 L 6.75 -7.265625 L 6.75 -8.421875 C 6.75 -8.722656 6.664062 -8.972656 6.5 -9.171875 C 6.332031 -9.367188 6.109375 -9.46875 5.828125 -9.46875 C 5.546875 -9.46875 5.320312 -9.367188 5.15625 -9.171875 C 5 -8.972656 4.921875 -8.722656 4.921875 -8.421875 L 4.921875 0 L 0.875 0 L 0.875 -8.21875 C 0.875 -8.800781 0.972656 -9.390625 1.171875 -9.984375 C 1.378906 -10.578125 1.691406 -11.113281 2.109375 -11.59375 C 2.523438 -12.070312 3.039062 -12.460938 3.65625 -12.765625 C 4.269531 -13.066406 5 -13.21875 5.84375 -13.21875 C 6.6875 -13.21875 7.414062 -13.066406 8.03125 -12.765625 C 8.65625 -12.460938 9.171875 -12.070312 9.578125 -11.59375 C 9.984375 -11.113281 10.285156 -10.578125 10.484375 -9.984375 C 10.691406 -9.390625 10.796875 -8.800781 10.796875 -8.21875 Z M 10.796875 0 "/></g></g></g><g fill="#000000" fill-opacity="1"><g transform="translate(83.577607, 36.594526)"><g><path d="M 4.9375 -13 L 4.9375 0 L 0.890625 0 L 0.890625 -13 Z M 4.9375 -13 "/></g></g></g><g fill="#000000" fill-opacity="1"><g transform="translate(89.421074, 36.594526)"><g><path d="M 7.625 -7.609375 L 7.671875 -7.609375 L 7.671875 -13 L 11.71875 -13 L 11.71875 -2.015625 C 11.71875 -1.660156 11.660156 -1.34375 11.546875 -1.0625 C 11.429688 -0.789062 11.273438 -0.554688 11.078125 -0.359375 C 10.878906 -0.160156 10.644531 -0.0078125 10.375 0.09375 C 10.101562 0.207031 9.8125 0.265625 9.5 0.265625 C 9.363281 0.265625 9.191406 0.238281 8.984375 0.1875 C 8.785156 0.144531 8.570312 0.0664062 8.34375 -0.046875 C 8.125 -0.160156 7.90625 -0.320312 7.6875 -0.53125 C 7.476562 -0.75 7.285156 -1.023438 7.109375 -1.359375 L 5.09375 -5.34375 L 5.046875 -5.34375 L 5.046875 0 L 1 0 L 1 -10.9375 C 1 -11.625 1.203125 -12.175781 1.609375 -12.59375 C 2.023438 -13.007812 2.550781 -13.21875 3.1875 -13.21875 C 3.675781 -13.21875 4.132812 -13.070312 4.5625 -12.78125 C 5 -12.5 5.320312 -12.15625 5.53125 -11.75 Z M 7.625 -7.609375 "/></g></g></g><g fill="#000000" fill-opacity="1"><g transform="translate(102.128295, 36.594526)"><g><path d="M 9.28125 -13 L 9.28125 -9.546875 L 7.671875 -9.546875 C 7.078125 -9.546875 6.550781 -9.421875 6.09375 -9.171875 C 5.644531 -8.921875 5.320312 -8.550781 5.125 -8.0625 L 9.28125 -8.0625 L 9.28125 -4.9375 L 5.125 -4.9375 C 5.332031 -4.4375 5.65625 -4.0625 6.09375 -3.8125 C 6.53125 -3.570312 7.0625 -3.453125 7.6875 -3.453125 L 9.28125 -3.453125 L 9.28125 0 L 7.296875 0 C 6.398438 0 5.550781 -0.144531 4.75 -0.4375 C 3.957031 -0.726562 3.257812 -1.148438 2.65625 -1.703125 C 2.050781 -2.265625 1.566406 -2.945312 1.203125 -3.75 C 0.847656 -4.550781 0.671875 -5.46875 0.671875 -6.5 C 0.671875 -7.519531 0.847656 -8.429688 1.203125 -9.234375 C 1.566406 -10.046875 2.050781 -10.726562 2.65625 -11.28125 C 3.269531 -11.84375 3.976562 -12.269531 4.78125 -12.5625 C 5.59375 -12.851562 6.441406 -13 7.328125 -13 Z M 9.28125 -13 "/></g></g></g><g fill="#000000" fill-opacity="1"><g transform="translate(112.090022, 36.594526)"><g><path d="M 10.484375 -9.25 C 10.484375 -8.75 10.375 -8.253906 10.15625 -7.765625 C 9.945312 -7.273438 9.644531 -6.867188 9.25 -6.546875 C 9.800781 -6.335938 10.175781 -6.003906 10.375 -5.546875 C 10.570312 -5.085938 10.671875 -4.5625 10.671875 -3.96875 L 10.671875 0 L 6.625 0 L 6.625 -3.328125 C 6.625 -3.742188 6.550781 -4.046875 6.40625 -4.234375 C 6.269531 -4.429688 5.957031 -4.53125 5.46875 -4.53125 L 5.46875 -7.640625 C 5.789062 -7.640625 6.085938 -7.703125 6.359375 -7.828125 C 6.640625 -7.960938 6.78125 -8.210938 6.78125 -8.578125 C 6.78125 -8.867188 6.703125 -9.101562 6.546875 -9.28125 C 6.398438 -9.457031 6.164062 -9.546875 5.84375 -9.546875 C 5.488281 -9.546875 5.242188 -9.457031 5.109375 -9.28125 C 4.984375 -9.101562 4.921875 -8.804688 4.921875 -8.390625 L 4.921875 0 L 0.875 0 L 0.875 -8.296875 C 0.875 -9.867188 1.296875 -11.082031 2.140625 -11.9375 C 2.992188 -12.789062 4.21875 -13.21875 5.8125 -13.21875 C 6.457031 -13.21875 7.0625 -13.109375 7.625 -12.890625 C 8.1875 -12.679688 8.679688 -12.398438 9.109375 -12.046875 C 9.535156 -11.691406 9.867188 -11.269531 10.109375 -10.78125 C 10.359375 -10.300781 10.484375 -9.789062 10.484375 -9.25 Z M 10.484375 -9.25 "/></g></g></g></svg>